# xmcd
#
# Track frame offsets: 
#        150
#        15758
#        49501
#        62004
#        77315
#        92476
#        112147
#        129673
#        153733
#        176158
#        192403
#        213410
#        231492
#        249757
#        264461
#        279619
#        305621
#        321703
#        340894
#
# Disc length: 4787 seconds
#
# Revision: 2
# Processed by: cddbd v1.5.2PL0 Copyright (c) Steve Scherf et al.
# Submitted via: ExactAudioCopy v1.3
#
DISCID=0f12b113
DTITLE=Various Artist - Akella Presents - vol.111 - Women's Blues-Roc
DTITLE=k  CD2
DYEAR=2017
DGENRE=Blues
TTITLE0=Lisa Lystam Family Band - Try Try Try
TTITLE1=Born Healer - Since I've Been Loving You
TTITLE2=Vala Cupp - Self Destructive Blues
TTITLE3=Kathi McDonald - Wang Dang Doodle
TTITLE4=Hurricane Ruth - Mississippi Queen
TTITLE5=Trampled Under Foot - Heart On The Line
TTITLE6=Rossington - Good Side Of Good
TTITLE7=Angel and the Bad Boys - Rock Me Baby
TTITLE8=Blue Touch - Black Sheep
TTITLE9=Deborah Coleman - Don't Start The Car
TTITLE10=Bridget Kelly - Windchase Blues
TTITLE11=Lucinda Williams - Joy
TTITLE12=Lauren Anderson - Mine
TTITLE13=Joanne Shaw Taylor - The Dirty Truth
TTITLE14=Sharon Lewis and Texas Fire - Don't Try To Judge Me
TTITLE15=Bare Bones Boogie Band - Meet Me In The Morning
TTITLE16=Jessy Martens - Forever Mine
TTITLE17=Laura Cox Band - Take Me Back Home
TTITLE18=Bianca Kinane - Chain of Fools
EXTD=
EXTT0=
EXTT1=
EXTT2=
EXTT3=
EXTT4=
EXTT5=
EXTT6=
EXTT7=
EXTT8=
EXTT9=
EXTT10=
EXTT11=
EXTT12=
EXTT13=
EXTT14=
EXTT15=
EXTT16=
EXTT17=
EXTT18=
PLAYORDER=
